# xmcd
#
# Track frame offsets: 
#        150
#        12439
#        27981
#        41793
#        54931
#        66394
#        80605
#        95066
#        107947
#        123292
#
# Disc length: 1787 seconds
#
# Revision: 1
# Processed by: cddbd v1.5.2PL0 Copyright (c) Steve Scherf et al.
# Submitted via: ExactAudioCopy v0.99pb5
#
DISCID=8806f90a
DTITLE=Paquita la del Barrio  - Joyas Musicales 
DYEAR=2003
DGENRE=Rancheras
TTITLE0=Copa Vacia
TTITLE1=Cuanto Pagas
TTITLE2=Pierdeme El Respeto
TTITLE3=No Hay Quinto Malo
TTITLE4=No Vuelvo Amar
TTITLE5=Un Amor A mi Medida
TTITLE6=Te Parto El Alma
TTITLE7=Macho Y Senor
TTITLE8=Azul Celeste
TTITLE9=El Precio De Tu Amor
EXTD=
EXTT0=
EXTT1=
EXTT2=
EXTT3=
EXTT4=
EXTT5=
EXTT6=
EXTT7=
EXTT8=
EXTT9=
PLAYORDER=
